<svg width="256" height="256">
	<g fill="none" stroke-width="24.347" paint-order="markers fill stroke">
		<path d="M51.105 119.341l21.963 5.498-20.382-6.689-17.773-4.335zm-16.192-5.526l71.118-24.419 42.302 4.452-95.647 24.302zM156.271 93.34l65.229 6.615-73.167-6.107-42.302-4.452z"/>
		<path d="M73.068 124.84L221.5 99.954l-73.167-6.107-95.647 24.302z"/>
		<path d="M51.105 119.341l105.166-26-50.24-3.945-71.118 24.42z"/>
		<path d="M51.105 119.341l105.166-26 65.229 6.614L73.068 124.84z"/>
	</g>
	<path fill="#545555" fill-rule="evenodd" stroke="#8d8c8d" stroke-opacity=".453" stroke-width="1.011" d="M3.534 32.697h251.022v199.606H3.534z"/>
	<text font-size="152.803" style="line-height:1.25" x="24.227" y="152.213" fill="#fffcff" stroke-width="3.82" font-family="sans-serif" font-weight="400" letter-spacing="0" transform="scale(.70411 1.42023)" word-spacing="0">
		<tspan x="24.227" y="152.213">HEX</tspan>
	</text>
</svg>
